<svg width="20" height="20" viewBox="0 0 20 20" fill="none" xmlns="http://www.w3.org/2000/svg">
<path d="M16 6.98362C16 5.39666 15.3679 3.87471 14.2426 2.75256C13.1174 1.63042 11.5913 1 10 1C8.4087 1 6.88258 1.63042 5.75736 2.75256C4.63214 3.87471 4 5.39666 4 6.98362C4 13.9645 1 15.959 1 15.959H19C19 15.959 16 13.9645 16 6.98362Z" stroke="white" stroke-width="2" stroke-linecap="round" stroke-linejoin="round"/>
<path d="M12.0391 18.0059C11.8633 18.3081 11.6109 18.559 11.3073 18.7334C11.0037 18.9078 10.6595 18.9996 10.3091 18.9996C9.95872 18.9996 9.61449 18.9078 9.31088 18.7334C9.00726 18.559 8.75491 18.3081 8.5791 18.0059" stroke="white" stroke-width="2" stroke-linecap="round" stroke-linejoin="round"/>
</svg>
