<svg width="24" height="25" viewBox="0 0 24 25" fill="none" xmlns="http://www.w3.org/2000/svg">
<path d="M18.6667 9.45371C18.6667 7.47686 17.9643 5.58098 16.714 4.18314C15.4638 2.7853 13.7681 2 12 2C10.2319 2 8.5362 2.7853 7.28596 4.18314C6.03571 5.58098 5.33333 7.47686 5.33333 9.45371C5.33333 18.1497 2 20.6343 2 20.6343H22C22 20.6343 18.6667 18.1497 18.6667 9.45371Z" stroke="#727272" stroke-width="2.5" stroke-linecap="round" stroke-linejoin="round"/>
<path d="M13.9226 22.25C13.7272 22.6265 13.4468 22.939 13.1095 23.1563C12.7721 23.3735 12.3897 23.4879 12.0003 23.4879C11.611 23.4879 11.2286 23.3735 10.8912 23.1563C10.5539 22.939 10.2735 22.6265 10.0781 22.25" stroke="#727272" stroke-width="2" stroke-linecap="round" stroke-linejoin="round"/>
</svg>
