<svg width="78" height="22" viewBox="0 0 78 22" fill="none" xmlns="http://www.w3.org/2000/svg">
<path d="M15.5934 20.7H11.7934V16C11.26 16.4533 10.52 16.8333 9.57336 17.14C8.64003 17.4333 7.78003 17.58 6.99336 17.58C5.62003 17.58 4.38003 17.34 3.27336 16.86C2.16669 16.3667 1.34669 15.5667 0.813359 14.46C0.386693 13.5933 0.173359 12.36 0.173359 10.76C0.173359 9.54667 0.286693 8.22667 0.513359 6.8C0.740026 5.37333 1.02669 4 1.37336 2.68H5.17336L4.91336 3.88C4.59336 5.33333 4.34669 6.55333 4.17336 7.54C4.00003 8.52667 3.91336 9.43333 3.91336 10.26C3.91336 11.6067 4.22669 12.56 4.85336 13.12C5.49336 13.6667 6.30669 13.94 7.29336 13.94C7.90669 13.94 8.56669 13.8 9.27336 13.52C9.98003 13.2267 10.5734 12.8267 11.0534 12.32C11.5467 11.8133 11.7934 11.2467 11.7934 10.62V2.26H15.5934V8.4H18.3934V12.04H15.5934V20.7ZM29.4526 1.42C29.8792 1.11333 30.3859 0.959999 30.9726 0.959999C31.4526 0.959999 31.8526 1.08 32.1726 1.32C32.3592 1.45333 32.4992 1.62 32.5926 1.82C32.6992 2.02 32.7526 2.22667 32.7526 2.44C32.7526 2.66667 32.7059 2.86667 32.6126 3.04C33.1059 2.89333 33.5059 2.82 33.8126 2.82C34.1592 2.82 34.4459 2.9 34.6726 3.06C34.8726 3.20667 35.0192 3.39333 35.1126 3.62C35.2192 3.83333 35.2726 4.06667 35.2726 4.32C35.2726 4.82667 35.0926 5.2 34.7326 5.44C34.2792 5.74667 33.7392 5.96667 33.1126 6.1C33.5526 6.23333 33.8859 6.34 34.1126 6.42C34.3392 6.5 34.5459 6.60667 34.7326 6.74C34.9059 6.86 35.0392 7.02667 35.1326 7.24C35.2259 7.44 35.2726 7.65333 35.2726 7.88C35.2726 8.14667 35.2192 8.4 35.1126 8.64C35.0059 8.88 34.8526 9.07333 34.6526 9.22C34.4526 9.36667 34.2126 9.44 33.9326 9.44C33.7459 9.44 33.5326 9.40667 33.2926 9.34C33.0526 9.27333 32.8192 9.2 32.5926 9.12C32.6859 9.30667 32.7326 9.52667 32.7326 9.78C32.7326 10.2867 32.5459 10.6733 32.1726 10.94C31.9192 11.14 31.5726 11.24 31.1326 11.24C30.9726 11.24 30.7459 11.2133 30.4526 11.16V11.88H36.8926V14.7H20.0926V11.88H26.5726V11.1C26.2792 11.1667 26.0192 11.2 25.7926 11.2C25.3526 11.2 24.9992 11.0933 24.7326 10.88C24.4126 10.64 24.2526 10.3133 24.2526 9.9C24.2526 9.68667 24.3059 9.46 24.4126 9.22C24.0259 9.34 23.6859 9.4 23.3926 9.4C22.9792 9.4 22.6259 9.29333 22.3326 9.08C21.9592 8.8 21.7726 8.42 21.7726 7.94C21.7726 7.71333 21.8192 7.5 21.9126 7.3C22.0192 7.08667 22.1659 6.91333 22.3526 6.78C22.6459 6.55333 23.1526 6.32667 23.8726 6.1C23.2859 5.96667 22.7792 5.73333 22.3526 5.4C22.1659 5.26667 22.0259 5.10667 21.9326 4.92C21.8392 4.72 21.7926 4.51333 21.7926 4.3C21.7926 4.08667 21.8392 3.88 21.9326 3.68C22.0392 3.48 22.1859 3.31333 22.3726 3.18C22.6792 2.95333 23.0526 2.84 23.4926 2.84C23.7592 2.84 24.0526 2.88667 24.3726 2.98C24.2792 2.80667 24.2326 2.62 24.2326 2.42C24.2326 2.20667 24.2792 2.00667 24.3726 1.82C24.4659 1.62 24.6059 1.45333 24.7926 1.32C25.1259 1.06667 25.5392 0.939999 26.0326 0.939999C27.1526 0.939999 27.9726 1.52 28.4926 2.68C28.7726 2.13333 29.0926 1.71333 29.4526 1.42ZM27.3526 18.32C27.6992 18.3467 27.9726 18.36 28.1726 18.36C29.2392 18.36 30.4326 18.2 31.7526 17.88C33.0859 17.56 34.4059 17.0933 35.7126 16.48L36.8926 19.34C35.2526 20.0867 33.7126 20.6267 32.2726 20.96C30.8459 21.2933 29.4526 21.46 28.0926 21.46C27.1992 21.46 26.2992 21.4 25.3926 21.28C24.1126 21.1067 23.1392 20.5933 22.4726 19.74C21.8192 18.8867 21.4926 17.7533 21.4926 16.34C21.4926 16.18 21.5059 15.9 21.5326 15.5H25.2526C25.2526 16.1533 25.2926 16.66 25.3726 17.02C25.4526 17.3667 25.6392 17.6533 25.9326 17.88C26.2392 18.1067 26.7126 18.2533 27.3526 18.32ZM26.3926 7.7L27.0526 8.34L28.5526 6.92L29.9926 8.34L30.6526 7.68L29.1726 6.3L30.6126 4.96L29.9926 4.34L28.5526 5.68L27.0926 4.3L26.4726 4.96L27.9326 6.3L26.3926 7.7ZM44.9118 13.56C47.4851 13.1467 49.4918 12.94 50.9318 12.94C52.0651 12.94 52.9518 13.0667 53.5918 13.32C54.2585 13.6267 54.7851 14.0867 55.1718 14.7C55.5718 15.3 55.7718 16.0267 55.7718 16.88C55.7718 17.2533 55.7318 17.64 55.6518 18.04L55.0518 21.2H41.8718V14.06L44.9118 13.56ZM38.7918 3.28C39.8451 2.92 40.9185 2.63333 42.0118 2.42C43.1185 2.20667 44.1451 2.1 45.0918 2.1C46.0918 2.1 46.9518 2.23333 47.6718 2.5C48.4051 2.76667 48.9451 3.18667 49.2918 3.76C49.6118 4.28 49.7718 4.86667 49.7718 5.52C49.7718 6.44 49.4385 7.42 48.7718 8.46C48.1185 9.48667 47.0985 10.5267 45.7118 11.58C44.3251 12.6333 42.5918 13.6267 40.5118 14.56L38.9118 11.88C41.2185 10.7733 42.9518 9.74667 44.1118 8.8C45.2718 7.85333 45.8518 7.05333 45.8518 6.4C45.8518 6.26667 45.8185 6.12 45.7518 5.96C45.5251 5.49333 44.9985 5.26 44.1718 5.26C43.1585 5.26 41.6385 5.62 39.6118 6.34L38.7918 3.28ZM51.6518 12.46V2.26H55.4518V12.46H51.6518ZM51.3918 16.12C51.0718 15.96 50.5918 15.88 49.9518 15.88C48.9518 15.88 47.4518 16.0733 45.4518 16.46V18.34H51.7718C51.8651 18.0067 51.9118 17.7 51.9118 17.42C51.9118 17.1267 51.8651 16.86 51.7718 16.62C51.6918 16.38 51.5651 16.2133 51.3918 16.12ZM63.3404 5.42C63.5537 4.78 63.8137 4.25333 64.1204 3.84C64.4404 3.42667 64.8604 3.22 65.3804 3.22C65.8204 3.22 66.2004 3.39333 66.5204 3.74C66.8537 4.14 67.0204 4.6 67.0204 5.12C67.0204 5.38667 66.9737 5.63333 66.8804 5.86C67.1204 5.75333 67.3471 5.7 67.5604 5.7C68.0404 5.7 68.4404 5.88667 68.7604 6.26C69.0671 6.58 69.2204 7 69.2204 7.52C69.2204 7.82667 69.1671 8.09333 69.0604 8.32H69.9004V2.26H73.1004V20.1H69.9004V11.42H69.0804C69.1871 11.6733 69.2404 11.9267 69.2404 12.18C69.2404 12.6467 69.0804 13.06 68.7604 13.42C68.4271 13.7933 68.0271 13.98 67.5604 13.98C67.3471 13.98 67.1204 13.9267 66.8804 13.82C66.9737 14.0467 67.0204 14.3 67.0204 14.58C67.0204 15.1 66.8604 15.5533 66.5404 15.94C66.2204 16.2733 65.8337 16.44 65.3804 16.44C64.8604 16.44 64.4404 16.2333 64.1204 15.82C63.8137 15.3933 63.5537 14.86 63.3404 14.22C63.1137 14.86 62.8404 15.3933 62.5204 15.82C62.2004 16.2333 61.7737 16.44 61.2404 16.44C60.8004 16.44 60.4204 16.2733 60.1004 15.94C59.7804 15.5533 59.6204 15.1 59.6204 14.58C59.6204 14.3 59.6671 14.0467 59.7604 13.82C59.5204 13.9267 59.2937 13.98 59.0804 13.98C58.6137 13.98 58.2137 13.7933 57.8804 13.42C57.5471 13.0733 57.3804 12.6533 57.3804 12.16C57.3804 11.64 57.5604 11.1933 57.9204 10.82C58.2937 10.4067 58.7671 10.0733 59.3404 9.82C58.7937 9.59333 58.3204 9.27333 57.9204 8.86C57.5604 8.47333 57.3804 8.02 57.3804 7.5C57.3804 7.00667 57.5471 6.59333 57.8804 6.26C58.2004 5.88667 58.5937 5.7 59.0604 5.7C59.2871 5.7 59.5204 5.75333 59.7604 5.86C59.6671 5.63333 59.6204 5.38 59.6204 5.1C59.6204 4.56667 59.7804 4.11333 60.1004 3.74C60.4204 3.39333 60.8004 3.22 61.2404 3.22C61.7737 3.22 62.2004 3.42667 62.5204 3.84C62.8404 4.25333 63.1137 4.78 63.3404 5.42ZM77.3204 2.26V20.7H73.9204V2.26H77.3204ZM61.4204 11.24L62.0004 11.84L63.4004 10.44L64.7204 11.82L65.3004 11.2L63.9804 9.84L65.2804 8.5L64.7204 7.9L63.4004 9.24L62.0404 7.88L61.5004 8.5L62.8004 9.84L61.4204 11.24Z" fill="#00D282"/>
</svg>
