<svg width="35" height="35" viewBox="0 0 35 35" fill="none" xmlns="http://www.w3.org/2000/svg">
<circle cx="17.2258" cy="17.2258" r="17.2258" fill="#ECECEC"/>
<path d="M25.4643 27.7112V25.4644C25.4643 24.2726 24.9908 23.1296 24.1481 22.2869C23.3054 21.4441 22.1624 20.9707 20.9706 20.9707H14.23C13.0382 20.9707 11.8952 21.4441 11.0525 22.2869C10.2098 23.1296 9.73633 24.2726 9.73633 25.4644V27.7112" stroke="white" stroke-width="3" stroke-linecap="round" stroke-linejoin="round"/>
<path d="M17.6001 16.4776C20.0819 16.4776 22.0938 14.4657 22.0938 11.9839C22.0938 9.50213 20.0819 7.49023 17.6001 7.49023C15.1183 7.49023 13.1064 9.50213 13.1064 11.9839C13.1064 14.4657 15.1183 16.4776 17.6001 16.4776Z" stroke="white" stroke-width="3" stroke-linecap="round" stroke-linejoin="round"/>
</svg>
