<svg width="18" height="20" viewBox="0 0 18 20" fill="none" xmlns="http://www.w3.org/2000/svg">
<path d="M9.19517 1H8.80483C8.33425 1 7.88295 1.18694 7.5502 1.51968C7.21745 1.85243 7.03051 2.30374 7.03051 2.77431V2.934C7.03019 3.24515 6.94806 3.55074 6.79235 3.82012C6.63663 4.08951 6.41282 4.31321 6.14336 4.46878L5.76188 4.69057C5.49215 4.8463 5.18618 4.92828 4.87472 4.92828C4.56327 4.92828 4.2573 4.8463 3.98757 4.69057L3.8545 4.6196C3.44735 4.38473 2.96365 4.32102 2.50957 4.44244C2.05549 4.56386 1.66815 4.86049 1.43256 5.26722L1.23739 5.60434C1.00252 6.01149 0.938807 6.49519 1.06023 6.94927C1.18165 7.40334 1.47828 7.79069 1.88501 8.02628L2.01808 8.11499C2.28625 8.26981 2.50923 8.49211 2.66486 8.7598C2.8205 9.0275 2.90337 9.33126 2.90524 9.6409V10.0933C2.90648 10.406 2.82508 10.7134 2.66929 10.9845C2.5135 11.2556 2.28885 11.4807 2.01808 11.637L1.88501 11.7168C1.47828 11.9524 1.18165 12.3398 1.06023 12.7939C0.938807 13.2479 1.00252 13.7316 1.23739 14.1388L1.43256 14.4759C1.66815 14.8826 2.05549 15.1793 2.50957 15.3007C2.96365 15.4221 3.44735 15.3584 3.8545 15.1235L3.98757 15.0526C4.2573 14.8968 4.56327 14.8148 4.87472 14.8148C5.18618 14.8148 5.49215 14.8968 5.76188 15.0526L6.14336 15.2743C6.41282 15.4299 6.63663 15.6536 6.79235 15.923C6.94806 16.1924 7.03019 16.498 7.03051 16.8091V16.9688C7.03051 17.4394 7.21745 17.8907 7.5502 18.2234C7.88295 18.5562 8.33425 18.7431 8.80483 18.7431H9.19517C9.66575 18.7431 10.1171 18.5562 10.4498 18.2234C10.7825 17.8907 10.9695 17.4394 10.9695 16.9688V16.8091C10.9698 16.498 11.0519 16.1924 11.2077 15.923C11.3634 15.6536 11.5872 15.4299 11.8566 15.2743L12.2381 15.0526C12.5078 14.8968 12.8138 14.8148 13.1253 14.8148C13.4367 14.8148 13.7427 14.8968 14.0124 15.0526L14.1455 15.1235C14.5527 15.3584 15.0364 15.4221 15.4904 15.3007C15.9445 15.1793 16.3319 14.8826 16.5674 14.4759L16.7626 14.1299C16.9975 13.7228 17.0612 13.2391 16.9398 12.785C16.8184 12.3309 16.5217 11.9436 16.115 11.708L15.9819 11.637C15.7112 11.4807 15.4865 11.2556 15.3307 10.9845C15.1749 10.7134 15.0935 10.406 15.0948 10.0933V9.64977C15.0935 9.33712 15.1749 9.02969 15.3307 8.75862C15.4865 8.48754 15.7112 8.26244 15.9819 8.10612L16.115 8.02628C16.5217 7.79069 16.8184 7.40334 16.9398 6.94927C17.0612 6.49519 16.9975 6.01149 16.7626 5.60434L16.5674 5.26722C16.3319 4.86049 15.9445 4.56386 15.4904 4.44244C15.0364 4.32102 14.5527 4.38473 14.1455 4.6196L14.0124 4.69057C13.7427 4.8463 13.4367 4.92828 13.1253 4.92828C12.8138 4.92828 12.5078 4.8463 12.2381 4.69057L11.8566 4.46878C11.5872 4.31321 11.3634 4.08951 11.2077 3.82012C11.0519 3.55074 10.9698 3.24515 10.9695 2.934V2.77431C10.9695 2.30374 10.7825 1.85243 10.4498 1.51968C10.1171 1.18694 9.66575 1 9.19517 1Z" stroke="black" stroke-width="1.5" stroke-linecap="round" stroke-linejoin="round"/>
<path d="M9.00034 12.5319C10.4702 12.5319 11.6618 11.3403 11.6618 9.87045C11.6618 8.40056 10.4702 7.20898 9.00034 7.20898C7.53045 7.20898 6.33887 8.40056 6.33887 9.87045C6.33887 11.3403 7.53045 12.5319 9.00034 12.5319Z" stroke="black" stroke-width="1.5" stroke-linecap="round" stroke-linejoin="round"/>
</svg>
